# xmcd
#
# Track frame offsets:
#	150
#	14695
#	27794
#	41534
#	52796
#	65965
#	81651
#	97444
#	113513
#	128934
#
# Disc length: 1924 seconds
#
# Revision: 0
# Processed by: cddbd v1.5.2PL0 Copyright (c) Steve Scherf et al.
# Submitted via: EasyCDDAExtractor 16.0.6.1
#
DISCID=8c07820a
DTITLE=Συλλογικός δίσκος - Λαϊκό τραγούδι 1954-1967, 1962-4
DYEAR=2008
DGENRE=Λαϊκή
TTITLE0=Αναγνωστάκης Πέτρος-Αντωνάτου Νίτσα - Πληροφορίες κακές [Μπάμπης Μπακά
TTITLE0=λης]
TTITLE1=Ζαγοραίος Σπύρος-Ζαγοραίου Ζωή - Κατηγόρα με [Δημήτρης Γκούτης]
TTITLE2=Καζαντζίδης Στέλιος - Τα καινούργια σκαλοπάτια [Απόστ. Καλδάρας-Γιώργο
TTITLE2=ς Μουφλουζέλης]
TTITLE3=Διονυσίου Στράτος - Δεν με τρομάζει η δουλειά [Μπάμπης Μπακάλης-Δημήτρ
TTITLE3=ης Γκούτης]
TTITLE4=Πάνου Πόλυ-χορωδία - Δώδεκα τσιγγάνες [Γιώργος Μητσάκης]
TTITLE5=Διονυσίου Στράτος-Λύδια Γιώτα - Φύγε, φύγε [Στράτος Ατταλίδης-Κώστας Β
TTITLE5=ίρβος]
TTITLE6=Γαβαλάς Πάνος-Γκίκα Βούλα - Μείνε αγάπη μου κοντά μου [Βασίλης Τσιτσάν
TTITLE6=ης]
TTITLE7=Αγγελόπουλος Μανώλης - Αγαπώ την Αννούλα [Θεόδωρος Δερβενιώτης]
TTITLE8=Καζαντζίδης Στέλιος-Γκίκα Βούλα - Εγώ καλός γεννήθηκα [Στέλιος Καζαντζ
TTITLE8=ίδης-Χρήστος Κολοκοτρώνης]
TTITLE9=Γκρέϋ Καίτη-Μάμος Γιώργος - Τό 'πες και τό 'κανες [Στέλιος Μακρυδάκης-
TTITLE9=Δημήτρης Γκούτης]
EXTD=
EXTT0=
EXTT1=
EXTT2=
EXTT3=
EXTT4=
EXTT5=
EXTT6=
EXTT7=
EXTT8=
EXTT9=
PLAYORDER=
